STARTFONT 2.1
COMMENT http://code.google.com/p/u8glib/
FONT m2icon_9
SIZE 9 72 72
FONTBOUNDINGBOX 13 11 0 -2
STARTPROPERTIES 11
FOUNDRY "Fine"
FAMILY_NAME ""
WEIGHT_NAME "Medium"
SLANT "R"
SETWIDTH_NAME "Normal"
SPACING "c"
CHARSET_REGISTRY "ISO-8859"
CHARSET_ENCODING "1"
COPYRIGHT "public domain"
FONT_ASCENT  9
FONT_DESCENT 2
ENDPROPERTIES
CHARS 24
STARTCHAR C101
ENCODING 65
SWIDTH 1222 0
DWIDTH 11 0
BBX 10 8 0 0
BITMAP
0f80
ffc0
8040
8040
8040
8040
8040
ffc0
ENDCHAR
STARTCHAR C102
ENCODING 66
SWIDTH 777 0
DWIDTH 7 0
BBX 6 8 0 0
BITMAP
3c
54
94
f4
84
84
84
fc
ENDCHAR
STARTCHAR C103
ENCODING 67
SWIDTH 777 0
DWIDTH 7 0
BBX 6 5 0 1
BITMAP
cc
78
30
78
cc
ENDCHAR
STARTCHAR C104
ENCODING 68
SWIDTH 1333 0
DWIDTH 12 0
BBX 10 7 0 0
BITMAP
00c0
0180
0300
c600
6c00
3800
1000
ENDCHAR
STARTCHAR C105
ENCODING 69
SWIDTH 1000 0
DWIDTH 9 0
BBX 8 8 0 0
BITMAP
ff
81
81
81
81
81
81
ff
ENDCHAR
STARTCHAR C106
ENCODING 70
SWIDTH 1000 0
DWIDTH 9 0
BBX 8 8 0 0
BITMAP
ff
81
bd
bd
bd
bd
81
ff
ENDCHAR
STARTCHAR C107
ENCODING 71
SWIDTH 1000 0
DWIDTH 9 0
BBX 8 8 0 0
BITMAP
ff
ff
ff
ff
ff
ff
ff
ff
ENDCHAR
STARTCHAR C110
ENCODING 72
SWIDTH 1111 0
DWIDTH 10 0
BBX 9 9 0 0
BITMAP
ff80
8080
8080
8080
8080
8080
8080
8080
ff80
ENDCHAR
STARTCHAR C111
ENCODING 73
SWIDTH 1111 0
DWIDTH 10 0
BBX 9 9 0 0
BITMAP
ff80
8080
be80
be80
be80
be80
be80
8080
ff80
ENDCHAR
STARTCHAR C112
ENCODING 74
SWIDTH 1222 0
DWIDTH 11 0
BBX 9 9 0 0
BITMAP
ff80
ff80
ff80
ff80
ff80
ff80
ff80
ff80
ff80
ENDCHAR
STARTCHAR C113
ENCODING 75
SWIDTH 888 0
DWIDTH 8 0
BBX 8 8 0 0
BITMAP
fe
83
83
83
83
83
ff
7f
ENDCHAR
STARTCHAR C114
ENCODING 76
SWIDTH 1000 0
DWIDTH 9 0
BBX 8 8 0 0
BITMAP
fe
83
bb
bb
bb
83
ff
7f
ENDCHAR
STARTCHAR C115
ENCODING 77
SWIDTH 1000 0
DWIDTH 9 0
BBX 8 8 0 0
BITMAP
fe
ff
ff
ff
ff
ff
ff
7f
ENDCHAR
STARTCHAR C116
ENCODING 78
SWIDTH 1111 0
DWIDTH 10 0
BBX 9 9 0 0
BITMAP
ff00
8180
8180
8180
8180
8180
8180
ff80
7f80
ENDCHAR
STARTCHAR C117
ENCODING 79
SWIDTH 1111 0
DWIDTH 10 0
BBX 9 9 0 0
BITMAP
ff00
8180
bd80
bd80
bd80
bd80
8180
ff80
7f80
ENDCHAR
STARTCHAR C120
ENCODING 80
SWIDTH 1111 0
DWIDTH 10 0
BBX 9 9 0 0
BITMAP
ff00
ff80
ff80
ff80
ff80
ff80
ff80
ff80
7f80
ENDCHAR
STARTCHAR C121
ENCODING 81
SWIDTH 1000 0
DWIDTH 9 0
BBX 8 8 0 0
BITMAP
3c
42
81
81
81
81
42
3c
ENDCHAR
STARTCHAR C122
ENCODING 82
SWIDTH 1000 0
DWIDTH 9 0
BBX 8 8 0 0
BITMAP
3c
42
99
bd
bd
99
42
3c
ENDCHAR
STARTCHAR C123
ENCODING 83
SWIDTH 1000 0
DWIDTH 9 0
BBX 8 8 0 0
BITMAP
3c
7e
ff
ff
ff
ff
7e
3c
ENDCHAR
STARTCHAR C141
ENCODING 97
SWIDTH 1222 0
DWIDTH 11 0
BBX 10 8 0 0
BITMAP
1800
2800
4fc0
8040
8040
4fc0
2800
1800
ENDCHAR
STARTCHAR C142
ENCODING 98
SWIDTH 1000 0
DWIDTH 9 0
BBX 8 9 0 0
BITMAP
18
24
42
81
e7
24
24
24
3c
ENDCHAR
STARTCHAR C146
ENCODING 102
SWIDTH 1222 0
DWIDTH 11 0
BBX 13 8 0 0
BITMAP
0f80
ffc0
8040
8040
9ff8
a010
c020
ffc0
ENDCHAR
STARTCHAR C147
ENCODING 103
SWIDTH 222 0
DWIDTH 2 0
BBX 1 11 0 -2
BITMAP
80
80
80
80
80
80
80
80
80
80
80
ENDCHAR
STARTCHAR C150
ENCODING 104
SWIDTH 1111 0
DWIDTH 10 0
BBX 9 9 0 0
BITMAP
0800
0000
0800
0800
be80
0800
0800
0000
0800
ENDCHAR
ENDFONT
